<svg width="811" height="921" viewBox="0 0 811 921" fill="none" xmlns="http://www.w3.org/2000/svg">
<path d="M490.918 0H471.663C462.932 0 454.529 3.50842 448.409 9.62775L393.58 64.457V91.382H455.263L488.307 58.5824C491.408 55.5635 495.569 53.7685 499.893 53.7685H691.061C695.385 53.7685 699.547 55.4819 702.647 58.5824L722.066 77.8379L752.418 108.435C755.436 111.535 757.231 115.696 757.231 120.02V311.188C757.231 315.513 755.518 319.674 752.418 322.774L719.618 355.819V417.502H746.543L801.372 362.672C807.573 356.471 811 348.149 811 339.419V320.163V111.127V91.8716C811 83.1413 807.492 74.7374 801.372 68.6181L797.374 64.6201L742.545 9.70934C736.344 3.50842 727.94 0 719.21 0H490.918Z" fill="#121212"/>
<path d="M210.082 921H229.337C238.068 921 246.471 917.492 252.591 911.372L307.42 856.543V829.618H245.737L212.693 862.418C209.592 865.437 205.431 867.232 201.107 867.232H9.93889C5.61456 867.232 1.45341 865.518 -1.64705 862.418L-21.0657 843.162L-51.4176 812.566C-54.4365 809.465 -56.2315 805.304 -56.2315 800.98V609.812C-56.2315 605.487 -54.5181 601.326 -51.4176 598.226L-18.618 565.181V503.499H-45.543L-100.372 558.328C-106.492 564.447 -110 572.851 -110 581.581V600.837V809.873V829.129C-110 837.859 -106.492 846.263 -100.372 852.382L-96.3743 856.38L-41.5451 911.291C-35.3442 917.492 -27.0219 920.919 -18.2916 920.919H210L210.082 921Z" fill="#121212"/>
<path d="M343.891 249.261H324.635C315.905 249.261 307.501 252.769 301.382 258.888L246.553 313.718V340.643H308.236L341.28 307.843C344.38 304.824 348.542 303.029 352.866 303.029H544.034C548.358 303.029 552.519 304.743 555.62 307.843L575.038 327.099L605.39 357.695C608.409 360.796 610.204 364.957 610.204 369.281V560.449C610.204 564.773 608.491 568.935 605.39 572.035L572.591 605.079V666.762H599.516L654.345 611.933C660.546 605.732 663.973 597.41 663.973 588.68V569.424V360.388V341.132C663.973 332.402 660.464 323.998 654.345 317.879L650.347 313.881L595.518 258.97C589.317 252.769 580.995 249.342 572.264 249.342H343.972L343.891 249.261Z" fill="#121212"/>
<path d="M127.185 332.81L113.559 346.436C107.358 352.637 103.932 360.959 103.932 369.689V447.282L122.942 466.293L166.512 422.723L166.675 376.135C166.675 371.811 168.389 367.649 171.489 364.549L306.685 229.353C309.786 226.252 313.947 224.539 318.271 224.539L364.86 224.375L408.43 180.806L389.419 161.795H311.826C303.095 161.795 294.692 165.222 288.572 171.423L274.947 185.049L127.185 332.81Z" fill="#121212"/>
<path d="M357.027 671.739H376.283C385.013 671.739 393.417 668.231 399.536 662.112L454.365 607.282V580.357H392.682L359.638 613.157C356.538 616.176 352.376 617.971 348.052 617.971H156.884C152.56 617.971 148.399 616.257 145.298 613.157L125.88 593.901L95.5277 563.305C92.5088 560.204 90.7138 556.043 90.7138 551.719V360.551C90.7138 356.227 92.4272 352.065 95.5277 348.965L128.327 315.921V254.238H101.402L46.5731 309.067C40.3721 315.268 36.9453 323.59 36.9453 332.32V351.576V560.612V579.868C36.9453 588.598 40.4537 597.002 46.5731 603.121L50.571 607.119L105.4 662.03C111.601 668.231 119.923 671.658 128.654 671.658H356.945L357.027 671.739Z" fill="#121212"/>
<path d="M573.815 588.19L587.44 574.564C593.641 568.363 597.068 560.041 597.068 551.311V473.718L578.057 454.707L534.488 498.277L534.325 544.865C534.325 549.189 532.611 553.351 529.511 556.451L394.314 691.647C391.214 694.748 387.053 696.461 382.728 696.461L336.14 696.625L292.57 740.194L311.581 759.205H389.174C397.904 759.205 406.308 755.697 412.428 749.577L426.053 735.951L573.815 588.19Z" fill="#121212"/>
</svg>
