<svg width="48" height="48" viewBox="0 0 48 48" fill="none" xmlns="http://www.w3.org/2000/svg">
<path d="M36.2308 12.0179C34.0762 10.613 32.521 8.36524 32.0359 5.74493C31.9311 5.17879 31.8735 4.59614 31.8735 4H24.9967L24.9857 31.5599C24.8701 34.6461 22.33 37.1232 19.2161 37.1232C18.2483 37.1232 17.337 36.8812 16.5346 36.459C14.6946 35.4907 13.4354 33.562 13.4354 31.3426C13.4354 28.155 16.0287 25.5617 19.2161 25.5617C19.8111 25.5617 20.3818 25.6598 20.9217 25.829V18.8085C20.363 18.7324 19.7953 18.6848 19.2161 18.6848C12.2366 18.6848 6.55859 24.3631 6.55859 31.3426C6.55859 35.6248 8.6981 39.4144 11.9622 41.7059C14.0181 43.1493 16.519 44 19.2161 44C26.1955 44 31.8735 38.3221 31.8735 31.3426V17.3673C34.5707 19.3032 37.8752 20.444 41.4409 20.444V13.5672C39.5202 13.5672 37.7312 12.9962 36.2308 12.0179Z" fill="white" fill-opacity="0.7"/>
</svg>
