<svg width="917" height="1092" viewBox="0 0 917 1092" fill="none" xmlns="http://www.w3.org/2000/svg">
<path d="M359.802 466.435L360.038 404.234C360.085 398.423 362.39 392.851 366.473 388.769L547.058 208.183C551.14 204.101 556.712 201.796 562.524 201.748L624.725 201.513L682.983 143.255L657.572 117.844L553.92 117.836C542.296 117.836 531.057 122.446 522.796 130.707L288.948 364.555C280.687 372.816 276.077 383.959 276.078 395.679L276.085 499.331L301.496 524.741L359.754 466.483L359.802 466.435Z" fill="url(#paint0_linear_8_1266)"/>
<path d="M305.735 689.394L261.927 645.201C257.844 641.118 255.538 635.547 255.537 629.687L255.47 374.303C255.47 368.539 257.775 362.968 261.857 358.789L305.659 314.603L305.701 232.229L269.773 232.227L196.483 305.517C188.222 313.778 183.612 324.921 183.612 336.641L183.614 362.386L183.635 641.641L183.637 667.386C183.59 679.058 188.25 690.25 196.512 698.512L269.813 771.813L305.741 771.816L305.735 689.394Z" fill="url(#paint1_linear_8_1266)"/>
<path d="M776.628 585.104L776.393 647.305C776.345 653.117 774.04 658.688 769.957 662.77L589.324 843.404C585.242 847.486 579.67 849.791 573.858 849.839L511.658 850.074L453.352 908.38L478.762 933.791L582.414 933.799C594.038 933.8 605.277 929.189 613.538 920.929L847.434 687.032C855.695 678.771 860.305 667.628 860.304 655.909L860.297 552.257L834.886 526.846L776.628 585.104Z" fill="url(#paint2_linear_8_1266)"/>
<path d="M829.879 358.447L873.687 402.639C877.77 406.722 880.076 412.294 880.076 418.154L880.095 673.586C880.096 679.349 877.791 684.921 873.708 689.099L829.907 733.285L829.913 815.707L865.84 815.71L939.131 742.419C947.392 734.158 952.002 723.015 952.001 711.296L951.999 685.551L951.979 406.295L951.977 380.55C951.976 368.927 947.364 357.687 939.102 349.425L865.801 276.123L829.873 276.121L829.879 358.543L829.879 358.447Z" fill="url(#paint3_linear_8_1266)"/>
<defs>
<linearGradient id="paint0_linear_8_1266" x1="227.766" y1="216.181" x2="472.614" y2="455.66" gradientUnits="userSpaceOnUse">
<stop stop-color="#1A1A1A"/>
<stop offset="0.854167" stop-color="#1A1A1A" stop-opacity="0.552083"/>
<stop offset="1" stop-color="#1A1A1A" stop-opacity="0"/>
</linearGradient>
<linearGradient id="paint1_linear_8_1266" x1="-260.565" y1="64.3144" x2="583.925" y2="829.958" gradientUnits="userSpaceOnUse">
<stop stop-color="#1A1A1A"/>
<stop offset="0.854167" stop-color="#1A1A1A" stop-opacity="0.552083"/>
<stop offset="1" stop-color="#1A1A1A" stop-opacity="0"/>
</linearGradient>
<linearGradient id="paint2_linear_8_1266" x1="466.003" y1="686.172" x2="710.851" y2="925.652" gradientUnits="userSpaceOnUse">
<stop stop-color="#1A1A1A"/>
<stop offset="0.854167" stop-color="#1A1A1A" stop-opacity="0.552083"/>
<stop offset="1" stop-color="#1A1A1A" stop-opacity="0"/>
</linearGradient>
<linearGradient id="paint3_linear_8_1266" x1="299.535" y1="108.209" x2="1144.02" y2="873.852" gradientUnits="userSpaceOnUse">
<stop stop-color="#1A1A1A"/>
<stop offset="0.854167" stop-color="#1A1A1A" stop-opacity="0.552083"/>
<stop offset="1" stop-color="#1A1A1A" stop-opacity="0"/>
</linearGradient>
</defs>
</svg>
